<svg width="12" height="10" viewBox="0 0 12 10" fill="none" xmlns="http://www.w3.org/2000/svg">
<path fill-rule="evenodd" clip-rule="evenodd" d="M1.16251 4.52C0.929552 4.55208 0.75 4.75473 0.75 4.99994C0.75 5.26744 0.963682 5.48429 1.22727 5.48429H9.61663L6.58607 8.54745L6.53975 8.60168C6.40073 8.791 6.41558 9.06011 6.58467 9.23243C6.77067 9.42197 7.07287 9.4226 7.25964 9.23384L11.1029 5.34973C11.1257 5.32748 11.1464 5.30294 11.1646 5.27647C11.2947 5.08733 11.2764 4.82495 11.1096 4.65645L7.25961 0.766128L7.20598 0.719347C7.01884 0.579064 6.75372 0.595277 6.58465 0.767603C6.39866 0.957161 6.39931 1.26383 6.5861 1.45258L9.61738 4.51558L1.22727 4.51558L1.16251 4.52Z" fill="white"/>
</svg>
