<svg width="72" height="72" viewBox="0 0 72 72" fill="none" xmlns="http://www.w3.org/2000/svg">
<circle cx="36" cy="36" r="36" fill="#EDEDEC"/>
<mask id="mask0_50_1173" style="mask-type:alpha" maskUnits="userSpaceOnUse" x="0" y="0" width="72" height="72">
<circle cx="36" cy="36" r="36" fill="white"/>
</mask>
<g mask="url(#mask0_50_1173)">
<path d="M61.2425 62.522C58.9636 56.5355 45.0376 53.6772 42.5979 51.9427C39.4649 49.7137 40.4645 42.3374 40.4645 42.3374L35.3399 42.4685L30.2154 42.3374C30.2154 42.3374 31.2112 49.7174 28.082 51.9427C25.6423 53.6772 11.7124 56.5355 9.4374 62.522C7.16236 68.5084 6.3006 73.7981 6.3006 73.7981H35.0527H35.6234H64.3755C64.3716 73.7981 63.5175 68.5084 61.2425 62.522Z" fill="#FFAC9D"/>
<path d="M29.2612 50.5678C31.6588 50.3281 34.0718 49.8523 36.1591 48.7097C37.6797 47.878 39.0508 46.8928 40.3262 45.7877C40.2496 43.8921 40.4603 42.3374 40.4603 42.3374L35.3357 42.4685L30.2111 42.3374C30.2111 42.3374 30.9196 47.5896 29.2612 50.5678Z" fill="#CC887F"/>
<path d="M61.6442 62.4395C59.8709 57.7755 51.0848 54.9995 46.056 53.1714C43.869 55.6401 39.9815 57.2847 35.5502 57.2847C31.1188 57.2847 27.2313 55.6401 25.0444 53.1714C20.0117 54.9995 11.2294 57.7792 9.45612 62.4395C7.16193 68.4709 6.30017 73.798 6.30017 73.798H35.2629H35.8374H64.8002C64.8002 73.798 63.9384 68.4709 61.6442 62.4395Z" fill="#FAF063"/>
<path d="M35.5308 59.1953C41.1533 59.1953 45.9753 57.0075 48.0436 53.8832C47.3388 53.6284 46.6686 53.3924 46.0558 53.1714C43.8688 55.6401 39.9813 57.2847 35.55 57.2847C31.1186 57.2847 27.2311 55.6401 25.0442 53.1714C24.4199 53.3962 23.742 53.6397 23.0258 53.8944C25.0978 57.0113 29.916 59.1953 35.5308 59.1953Z" fill="#F0BC27"/>
<path d="M26.734 30.8324C25.9068 28.3225 23.9458 28.9031 23.7619 28.9631C23.5704 28.9856 21.5443 29.2778 21.8929 31.8964C22.2452 34.5299 23.8079 35.9535 25.271 35.5339C26.7762 35.3017 27.5652 33.3611 26.734 30.8324Z" fill="#CC887F"/>
<path d="M43.3028 30.8324C44.13 28.3225 46.091 28.9031 46.2749 28.9631C46.4664 28.9856 48.4925 29.2778 48.1439 31.8964C47.7916 34.5299 46.2289 35.9535 44.7658 35.5339C43.2568 35.3017 42.4678 33.3611 43.3028 30.8324Z" fill="#CC887F"/>
<path d="M45.3939 26.8838C44.3674 15.8737 35.8111 16.4918 35.003 16.5743C34.1948 16.4918 25.6385 15.8737 24.6121 26.8838C23.5818 37.9576 28.626 45.1916 35.003 44.7907C41.38 45.1916 46.4241 37.9576 45.3939 26.8838Z" fill="#FFAC9D"/>
<path d="M36.2237 30.6421C36.2849 30.8182 36.3309 30.998 36.3807 31.1778C36.4343 31.3576 36.4764 31.5337 36.5186 31.7135C36.6028 32.0731 36.6756 32.4328 36.7407 32.7962C36.802 33.1595 36.8633 33.5192 36.9092 33.8863C36.959 34.2497 36.9973 34.6168 37.0318 34.9802L37.0395 35.0739L36.9782 35.1226C36.7522 35.3099 36.5224 35.4972 36.2888 35.677C36.0475 35.8493 35.8177 36.0366 35.5687 36.1977C35.7487 35.9617 35.9517 35.7482 36.1394 35.5234C36.3386 35.3061 36.5377 35.0888 36.7407 34.8791L36.6909 35.0252C36.6182 34.6655 36.5492 34.3021 36.4918 33.9388C36.4305 33.5754 36.3884 33.212 36.3424 32.8486C36.3003 32.4852 36.2658 32.1181 36.2466 31.751C36.2352 31.5674 36.2275 31.3838 36.2237 31.1965C36.2237 31.013 36.216 30.8294 36.2237 30.6421Z" fill="#CC887F"/>
<path d="M30.0454 37.8197L40.1988 37.7148C40.2027 37.7186 36.1428 41.6259 30.0454 37.8197Z" fill="white"/>
<path d="M32.6508 39.8168C32.6508 39.8168 32.758 39.8393 32.9457 39.888C33.1333 39.9292 33.3976 40.0303 33.7155 40.079C33.8764 40.1052 34.0449 40.1352 34.2249 40.1727C34.4011 40.2214 34.6002 40.2064 34.7956 40.2326C34.9947 40.2513 35.1977 40.2776 35.4084 40.2588C35.6152 40.2513 35.8297 40.2513 36.0365 40.2364C36.2433 40.2026 36.454 40.1727 36.657 40.139C36.8676 40.1202 37.0553 40.0341 37.2468 39.9891C37.4345 39.9292 37.626 39.8954 37.7907 39.8093C37.9554 39.7344 38.1162 39.6669 38.2656 39.6032C38.4188 39.547 38.5375 39.4646 38.6563 39.4009C38.7712 39.3335 38.8707 39.2773 38.9512 39.2286C39.1159 39.135 39.2193 39.0825 39.2193 39.0825C39.2193 39.0825 39.1427 39.1612 39.0048 39.2923C38.932 39.356 38.8478 39.4347 38.7482 39.5283C38.6486 39.6182 38.5414 39.7344 38.392 39.8093C38.2503 39.8992 38.0971 39.9928 37.9285 40.0903C37.7677 40.1989 37.5724 40.2626 37.3732 40.3375C37.2736 40.375 37.1702 40.4124 37.0706 40.4499L36.9136 40.5061L36.7489 40.536C36.5268 40.5735 36.3046 40.6147 36.0825 40.6522C35.8565 40.6634 35.6267 40.6597 35.4046 40.6634C35.1786 40.6784 34.9641 40.6297 34.7534 40.5997C34.5466 40.5623 34.3398 40.5473 34.156 40.4799C33.9683 40.4237 33.7959 40.3637 33.6389 40.3075C33.4742 40.2626 33.344 40.1914 33.2253 40.1277C33.1065 40.064 33.0031 40.0116 32.9189 39.9666C32.7465 39.873 32.6508 39.8168 32.6508 39.8168Z" fill="#CC887F"/>
<path d="M29.6777 30.8069C29.6777 31.6348 29.9917 32.3091 30.3786 32.3091C30.7654 32.3091 31.0795 31.6386 31.0795 30.8069C31.0795 29.979 30.7654 29.3047 30.3786 29.3047C29.9917 29.3047 29.6777 29.979 29.6777 30.8069Z" fill="#352C38"/>
<path d="M39.3369 30.8069C39.3369 31.6348 39.651 32.3091 40.0378 32.3091C40.4246 32.3091 40.7387 31.6386 40.7387 30.8069C40.7387 29.979 40.4246 29.3047 40.0378 29.3047C39.651 29.3084 39.3369 29.979 39.3369 30.8069Z" fill="#352C38"/>
<path d="M27.9552 28.353C27.9552 28.353 28.0778 27.9934 28.4569 27.5738C28.5565 27.4764 28.6561 27.3565 28.7901 27.2591C28.9165 27.1542 29.0583 27.0531 29.2191 26.9632C29.3723 26.862 29.56 26.8021 29.74 26.7271C29.9353 26.6822 30.1268 26.6148 30.3375 26.6073C30.4409 26.5998 30.5443 26.596 30.6477 26.5923C30.7511 26.5998 30.8545 26.6185 30.9541 26.6297C31.1609 26.641 31.341 26.7346 31.521 26.7946C31.701 26.8583 31.8427 26.9781 31.9882 27.0643C32.1376 27.1467 32.2295 27.2816 32.3368 27.379C32.4363 27.4801 32.5283 27.5738 32.5819 27.6749C32.647 27.7686 32.693 27.8585 32.7351 27.9259C32.8155 28.0683 32.85 28.1507 32.85 28.1507C32.85 28.1507 32.7619 28.1095 32.6202 28.0383C32.5512 28.0009 32.4632 27.9559 32.3751 27.9035C32.287 27.8435 32.1721 27.8023 32.0572 27.7499C31.9384 27.7049 31.8274 27.6262 31.6895 27.5925C31.5554 27.5588 31.4252 27.4914 31.2835 27.4689C31.1418 27.4502 31.0001 27.3977 30.8545 27.4052C30.7818 27.4015 30.709 27.3977 30.6362 27.3902L30.4141 27.409C30.2647 27.4015 30.1192 27.4577 29.966 27.4726C29.8204 27.5213 29.6711 27.5438 29.5293 27.6038C29.3876 27.6525 29.2498 27.7049 29.1195 27.7648C28.9855 27.8173 28.8667 27.8847 28.7442 27.9334C28.6293 27.9934 28.522 28.0496 28.4263 28.0983C28.3305 28.1507 28.2463 28.1957 28.1773 28.2331C28.0356 28.308 27.9552 28.353 27.9552 28.353Z" fill="#352C38"/>
<path d="M37.6791 28.353C37.6791 28.353 37.8016 27.9934 38.1808 27.5738C38.2804 27.4764 38.38 27.3565 38.514 27.2591C38.6404 27.1542 38.7821 27.0531 38.943 26.9632C39.0962 26.862 39.2839 26.8021 39.4639 26.7271C39.6592 26.6822 39.8507 26.6148 40.0614 26.6073C40.1648 26.5998 40.2682 26.596 40.3716 26.5923C40.475 26.5998 40.5784 26.6185 40.678 26.6297C40.8848 26.641 41.0648 26.7346 41.2448 26.7946C41.4249 26.8583 41.5666 26.9781 41.7121 27.0643C41.8615 27.1467 41.9534 27.2816 42.0606 27.379C42.1602 27.4801 42.2521 27.5738 42.3058 27.6749C42.3709 27.7686 42.4168 27.8585 42.459 27.9259C42.5394 28.0683 42.5739 28.1507 42.5739 28.1507C42.5739 28.1507 42.4858 28.1095 42.3441 28.0383C42.2751 28.0009 42.187 27.9559 42.0989 27.9035C42.0108 27.8435 41.8959 27.8023 41.781 27.7499C41.6623 27.7049 41.5512 27.6262 41.4134 27.5925C41.2793 27.5588 41.1491 27.4914 41.0074 27.4689C40.8657 27.4502 40.724 27.3977 40.5784 27.4052C40.5056 27.4015 40.4329 27.3977 40.3601 27.3902L40.138 27.409C39.9886 27.4015 39.843 27.4577 39.6898 27.4726C39.5443 27.5213 39.3949 27.5438 39.2532 27.6038C39.1115 27.6525 38.9736 27.7049 38.8434 27.7648C38.7094 27.8173 38.5906 27.8847 38.4681 27.9334C38.3532 27.9934 38.2459 28.0496 38.1502 28.0983C38.0544 28.1507 37.9702 28.1957 37.9012 28.2331C37.7595 28.308 37.6791 28.353 37.6791 28.353Z" fill="#352C38"/>
<path d="M24.6459 32.3124C24.6459 32.3124 21.9649 21.4484 23.4969 18.3278C25.0289 15.2072 26.8175 16.2037 26.8175 16.2037C26.8175 16.2037 29.2419 9.71155 34.3512 10.959C39.4567 12.2065 42.3943 14.4542 45.0753 12.2065C45.0753 12.2065 45.0753 14.2033 43.5433 15.0799C43.5433 15.0799 46.7337 15.0799 48.013 12.0829C48.013 12.0829 49.9203 18.4889 45.7073 20.7366C45.7073 20.7366 46.0213 28.7423 45.7149 31.6868L44.5659 31.5632C44.5659 31.5632 43.9263 27.3187 43.5433 21.9467C43.5433 21.9467 36.9059 25.4419 28.8628 19.3243C28.8628 19.3243 30.0118 23.4451 25.4157 26.0675L25.7987 31.8104L24.6459 32.3124Z" fill="#965450"/>
<path d="M41.0001 22.733C39.1005 22.6056 37.1969 22.1973 35.6534 21.6166C32.1987 20.3204 29.2343 16.4731 28.9968 12.7456C27.5299 14.2928 26.8137 16.2034 26.8137 16.2034C26.8137 16.2034 25.0251 15.2031 23.493 18.3275C21.961 21.4481 24.6421 32.3121 24.6421 32.3121L25.7911 31.8138L25.4081 26.0709C30.0041 23.4485 28.8551 19.3277 28.8551 19.3277C33.8763 23.1376 38.3459 23.2163 41.0001 22.733Z" fill="#76413B"/>
</g>
</svg>
