
<svg width="18" height="18" viewBox="0 0 18 18" fill="none" xmlns="http://www.w3.org/2000/svg">
<path d="M10.5912 0.659007C11.4698 1.53768 11.4698 2.96231 10.5912 3.84098C9.71249 4.71966 8.28786 4.71966 7.40919 3.84098C6.53051 2.96231 6.53051 1.53768 7.40919 0.659007C8.28783 -0.219669 9.71245 -0.219669 10.5912 0.659007Z" fill="white"/>
<path d="M10.5912 7.40901C11.4698 8.28768 11.4698 9.7123 10.5912 10.591C9.71249 11.4697 8.28786 11.4697 7.40919 10.591C6.53051 9.7123 6.53051 8.28768 7.40919 7.40901C8.28783 6.53033 9.71245 6.53033 10.5912 7.40901Z" fill="white"/>
<path d="M10.5912 14.159C11.4698 15.0377 11.4698 16.4623 10.5912 17.341C9.71249 18.2197 8.28786 18.2197 7.40919 17.341C6.53051 16.4623 6.53051 15.0377 7.40919 14.159C8.28783 13.2803 9.71245 13.2803 10.5912 14.159Z" fill="white"/>
</svg>
