<svg width="26" height="26" viewBox="0 0 26 26" fill="none" xmlns="http://www.w3.org/2000/svg">
<path d="M9.89593 22.5048V19.1922C9.89593 18.3466 10.5864 17.6612 11.4382 17.6612H14.5519C14.961 17.6612 15.3532 17.8225 15.6425 18.1096C15.9317 18.3967 16.0942 18.7862 16.0942 19.1922V22.5048C16.0916 22.8563 16.2305 23.1944 16.48 23.4439C16.7295 23.6933 17.069 23.8337 17.4231 23.8336H19.5474C20.5395 23.8362 21.4919 23.4467 22.1944 22.7512C22.8968 22.0557 23.2916 21.1112 23.2916 20.1263V10.6894C23.2916 9.89382 22.9363 9.13915 22.3216 8.62872L15.0951 2.89918C13.8381 1.8946 12.037 1.92704 10.8174 2.97622L3.75585 8.62872C3.11205 9.12411 2.72727 9.88101 2.70825 10.6894V20.1167C2.70825 22.1695 4.38458 23.8336 6.45244 23.8336H8.52823C9.26375 23.8337 9.8615 23.2446 9.86683 22.5144L9.89593 22.5048Z" fill="#B3B3B3"/>
</svg>
