<svg width="26" height="26" viewBox="0 0 26 26" fill="none" xmlns="http://www.w3.org/2000/svg">
<path fill-rule="evenodd" clip-rule="evenodd" d="M18.3509 3.25C19.8037 3.25 21.2012 3.82417 22.2292 4.85442C23.2584 5.8825 23.8337 7.26917 23.8337 8.72083V17.2792C23.8337 20.3017 21.3745 22.75 18.3509 22.75H7.64866C4.62508 22.75 2.16699 20.3017 2.16699 17.2792V8.72083C2.16699 5.69833 4.61424 3.25 7.64866 3.25H18.3509ZM20.0745 10.335L20.1612 10.2483C20.4201 9.93418 20.4201 9.47918 20.1492 9.16501C19.9987 9.00359 19.7917 8.90501 19.5762 8.88334C19.3487 8.87143 19.132 8.94834 18.9684 9.10001L14.0837 13C13.4553 13.5211 12.5551 13.5211 11.917 13L7.04199 9.10001C6.70507 8.85084 6.23924 8.88334 5.95865 9.17584C5.66615 9.46834 5.63365 9.93418 5.88174 10.2592L6.02365 10.4L10.9528 14.2458C11.5595 14.7225 12.2951 14.9825 13.0653 14.9825C13.8334 14.9825 14.582 14.7225 15.1876 14.2458L20.0745 10.335Z" fill="#B3B3B3"/>
</svg>
