<svg width="10" height="8" viewBox="0 0 10 8" fill="none" xmlns="http://www.w3.org/2000/svg">
<path fill-rule="evenodd" clip-rule="evenodd" d="M0.85358 3.58857C0.653902 3.61607 0.5 3.78977 0.5 3.99994C0.5 4.22923 0.683156 4.4151 0.909091 4.4151H8.09997L5.50235 7.04067L5.46264 7.08715C5.34348 7.24943 5.35621 7.4801 5.50115 7.62779C5.66058 7.79026 5.9196 7.7908 6.07969 7.62901L9.37384 4.2998C9.39347 4.28072 9.41123 4.25968 9.42681 4.23698C9.53832 4.07485 9.5226 3.84996 9.37967 3.70553L6.07967 0.370966L6.0337 0.330869C5.87329 0.210627 5.64605 0.224523 5.50113 0.372231C5.34171 0.534709 5.34227 0.797573 5.50237 0.959353L8.10061 3.58478L0.909091 3.58478L0.85358 3.58857Z" fill="#2ECC71"/>
</svg>
