<svg width="32" height="32" viewBox="0 0 32 32" fill="none" xmlns="http://www.w3.org/2000/svg">
<path d="M31.9996 17.4709C31.9996 16.8415 31.8575 16.2403 31.6008 15.6903C31.5744 15.5505 31.5441 15.4109 31.5063 15.2692L28.7267 8.38057L28.7079 8.31859C27.7353 5.4228 26.3515 2.74268 22.8426 2.74268H9.42661C5.83119 2.74268 4.56069 5.48921 3.56683 8.30251L0.659308 15.208C0.238975 15.8814 0 16.6518 0 17.4709V19.6145C0 19.9459 0.0391739 20.2701 0.113662 20.5823C0.041247 20.771 0 20.9743 0 21.1886V27.564C0 28.4989 0.757886 29.2569 1.69277 29.2569H5.20555C6.13994 29.2569 6.89782 28.4989 6.89782 27.564V24.3758H25.3024V27.564C25.3024 28.4989 26.0604 29.2569 26.9954 29.2569H30.307C31.2423 29.2569 32 28.4989 32 27.564V21.1879C32 20.9743 31.9583 20.7701 31.8865 20.5821C31.9607 20.2694 32 19.9455 32 19.6142V17.471H31.9996V17.4709ZM5.62975 8.99413C6.73655 5.87144 7.62662 4.91819 9.42661 4.91819H22.8418C24.6286 4.91819 25.6235 5.98139 26.6345 8.98069L28.6629 13.0912C28.0006 12.846 27.2718 12.7099 26.506 12.7099H5.49357C4.80409 12.7099 4.14521 12.8207 3.5373 13.0214L5.62975 8.99413ZM7.3722 20.4285H3.66583C2.99852 20.4285 2.4573 19.8868 2.4573 19.2196C2.4573 18.5521 2.99852 18.0108 3.66583 18.0108H7.3722C8.0398 18.0108 8.58101 18.5521 8.58101 19.2196C8.58101 19.8868 8.03944 20.4285 7.3722 20.4285ZM20.4651 20.1864H11.844C11.4213 20.1864 11.0788 19.8437 11.0788 19.4213C11.0788 18.998 11.4213 18.6554 11.844 18.6554H20.4651C20.8883 18.6554 21.2307 18.998 21.2307 19.4213C21.2307 19.8437 20.8883 20.1864 20.4651 20.1864ZM28.2403 20.4285H24.5341C23.8662 20.4285 23.3253 19.8868 23.3253 19.2196C23.3253 18.5521 23.8666 18.0108 24.5341 18.0108H28.2403C28.9082 18.0108 29.4496 18.5521 29.4496 19.2196C29.4496 19.8868 28.9082 20.4285 28.2403 20.4285Z" fill="#2ECC71"/>
</svg>
