<svg width="113" height="109" viewBox="0 0 113 109" fill="none" xmlns="http://www.w3.org/2000/svg">
<rect x="0.6" y="0.6" width="111.8" height="107.8" rx="4.4" fill="#2ECC71" fill-opacity="0.1" stroke="#2ECC71" stroke-width="1.2" stroke-dasharray="2.2 2.2"/>
<circle cx="66.8094" cy="32.1893" r="8.43933" fill="#2ECC71" stroke="white" stroke-width="1.5"/>
<g clip-path="url(#clip0_2541_1036)">
<path d="M70.3151 31.7822H67.1495V28.8803C67.1495 28.6801 66.9722 28.5176 66.7537 28.5176C66.5353 28.5176 66.358 28.6801 66.358 28.8803V31.7822H63.1923C62.9739 31.7822 62.7966 31.9447 62.7966 32.1449C62.7966 32.3451 62.9739 32.5077 63.1923 32.5077H66.358V35.4095C66.358 35.6097 66.5353 35.7723 66.7537 35.7723C66.9722 35.7723 67.1495 35.6097 67.1495 35.4095V32.5077H70.3151C70.5335 32.5077 70.7108 32.3451 70.7108 32.1449C70.7108 31.9447 70.5335 31.7822 70.3151 31.7822Z" fill="white"/>
</g>
<path fill-rule="evenodd" clip-rule="evenodd" d="M46.1255 28.4998C42.8679 28.4998 40.7633 30.7334 40.7633 34.1792V44.5623C40.7633 45.5294 40.9428 46.3927 41.2499 47.1398C41.2632 47.1239 41.5528 46.7711 41.9304 46.3109C42.6679 45.4121 43.7415 44.1038 43.749 44.0972C44.6237 43.0985 46.2658 41.6095 48.421 42.5107C48.8933 42.7066 49.3131 42.9748 49.6995 43.2218C49.7372 43.2458 49.7745 43.2697 49.8115 43.2932C50.5358 43.7773 50.9618 44.0049 51.4042 43.967C51.5875 43.9417 51.7594 43.8873 51.9225 43.7862C52.5376 43.407 54.1324 41.1473 54.61 40.4706C54.68 40.3714 54.726 40.3062 54.7414 40.286C56.1192 38.491 58.2428 38.0107 60.0125 39.0725C60.2502 39.214 61.9529 40.4035 62.5167 40.8814V34.1792C62.5167 30.7334 60.412 28.4998 57.1431 28.4998H46.1255ZM57.1445 26.7363C61.4133 26.7363 64.2814 29.7221 64.2814 34.1792V44.5623C64.2814 44.6744 64.2697 44.7795 64.2579 44.8846C64.2496 44.9584 64.2414 45.0322 64.2372 45.1083C64.2345 45.1544 64.2332 45.2004 64.2319 45.2465C64.2301 45.3079 64.2283 45.3693 64.2233 45.4307C64.2208 45.4547 64.216 45.4778 64.2113 45.5008C64.2065 45.5239 64.2018 45.547 64.1993 45.571C64.1576 45.9679 64.0931 46.3471 64.0033 46.715C63.9821 46.8069 63.9576 46.8955 63.9329 46.9849L63.9275 47.0045C63.8264 47.3609 63.7076 47.701 63.5647 48.0258C63.5397 48.0804 63.5133 48.1337 63.4869 48.1869C63.4693 48.2224 63.4517 48.2579 63.4345 48.2938C63.2803 48.6035 63.1134 48.9006 62.92 49.1761C62.8843 49.2271 62.8462 49.2749 62.808 49.3228C62.7828 49.3545 62.7576 49.3862 62.733 49.4188C62.532 49.6792 62.3221 49.9283 62.0845 50.1545C62.037 50.1996 61.9857 50.2409 61.9345 50.2822C61.9024 50.308 61.8704 50.3338 61.8393 50.3606C61.5953 50.5704 61.3463 50.7714 61.072 50.9433C61.0121 50.9809 60.9485 51.0125 60.8851 51.0439C60.8441 51.0642 60.8032 51.0845 60.7635 51.1064C60.4842 51.2606 60.2023 51.411 59.8951 51.5273C59.8212 51.5554 59.7426 51.5757 59.6637 51.5961C59.6077 51.6105 59.5515 51.625 59.4969 51.6423C59.4696 51.6508 59.4423 51.6593 59.415 51.6678C59.1406 51.7532 58.8671 51.8382 58.5716 51.8888C58.4004 51.9188 58.2188 51.9304 58.037 51.9419C57.9583 51.9469 57.8797 51.9519 57.8018 51.9584C57.7181 51.9646 57.636 51.9747 57.5538 51.9848C57.4201 52.0013 57.2862 52.0178 57.1445 52.0178H46.1268C45.6515 52.0178 45.1977 51.9697 44.7591 51.8977C44.7488 51.8961 44.7391 51.8945 44.7295 51.8929C44.7237 51.892 44.718 51.891 44.7123 51.8901C43.0021 51.5956 41.5825 50.7701 40.5877 49.525C40.5808 49.525 40.5781 49.5204 40.5744 49.5141C40.5721 49.5101 40.5694 49.5055 40.5649 49.501C39.565 48.242 39 46.5494 39 44.5623V34.1792C39 29.7221 41.8707 26.7363 46.1268 26.7363H57.1445ZM50.3764 34.9705C50.3764 36.6833 48.9433 38.1118 47.2223 38.1118C45.7096 38.1118 44.4198 37.0065 44.1308 35.5756C44.083 35.3609 44.056 35.1401 44.056 34.912C44.056 33.187 45.4573 31.7914 47.1893 31.7914C48.0712 31.7914 48.8698 32.1623 49.4418 32.7539C50.0163 33.3248 50.3764 34.1117 50.3764 34.9705Z" fill="#2ECC71"/>
<defs>
<clipPath id="clip0_2541_1036">
<rect width="7.91419" height="7.25467" fill="white" transform="translate(62.7966 28.5176)"/>
</clipPath>
</defs>
</svg>
