<svg width="46" height="47" viewBox="0 0 46 47" fill="none" xmlns="http://www.w3.org/2000/svg">
<rect width="46" height="47" rx="8" fill="#19C060"/>
<path fill-rule="evenodd" clip-rule="evenodd" d="M20.768 18.5812C20.768 20.2146 19.4215 21.5384 17.759 21.5384C16.0975 21.5384 14.75 20.2146 14.75 18.5812C14.75 16.9489 16.0975 15.625 17.759 15.625C19.4215 15.625 20.768 16.9489 20.768 18.5812ZM30.9316 17.286C31.6589 17.286 32.25 17.8668 32.25 18.5812C32.25 19.2966 31.6589 19.8774 30.9316 19.8774H25.1781C24.4499 19.8774 23.8588 19.2966 23.8588 18.5812C23.8588 17.8668 24.4499 17.286 25.1781 17.286H30.9316ZM16.0693 26.9632H21.8229C22.5511 26.9632 23.1422 27.5439 23.1422 28.2594C23.1422 28.9738 22.5511 29.5555 21.8229 29.5555H16.0693C15.3411 29.5555 14.75 28.9738 14.75 28.2594C14.75 27.5439 15.3411 26.9632 16.0693 26.9632ZM29.241 31.1806C30.9035 31.1806 32.25 29.8567 32.25 28.2243C32.25 26.591 30.9035 25.2671 29.241 25.2671C27.5795 25.2671 26.232 26.591 26.232 28.2243C26.232 29.8567 27.5795 31.1806 29.241 31.1806Z" fill="white"/>
</svg>
