<svg width="46" height="47" viewBox="0 0 46 47" fill="none" xmlns="http://www.w3.org/2000/svg">
<rect width="46" height="47" rx="8" fill="#19C060"/>
<path fill-rule="evenodd" clip-rule="evenodd" d="M15.0625 22.028C15.0625 18.0032 18.4259 14.75 22.4943 14.75C26.5741 14.75 29.9375 18.0032 29.9375 22.028C29.9375 24.0562 29.1999 25.9392 27.9858 27.5351C26.6465 29.2956 24.9956 30.8294 23.1375 32.0334C22.7122 32.3116 22.3284 32.3326 21.8616 32.0334C19.9929 30.8294 18.3421 29.2956 17.0142 27.5351C15.7992 25.9392 15.0625 24.0562 15.0625 22.028ZM20.0449 22.2547C20.0449 23.603 21.1452 24.6635 22.4943 24.6635C23.8442 24.6635 24.955 23.603 24.955 22.2547C24.955 20.9168 23.8442 19.8047 22.4943 19.8047C21.1452 19.8047 20.0449 20.9168 20.0449 22.2547Z" fill="white"/>
</svg>
