<svg width="11" height="11" viewBox="0 0 11 11" fill="none" xmlns="http://www.w3.org/2000/svg">
<path fill-rule="evenodd" clip-rule="evenodd" d="M1.60416 4.72881C1.60416 2.62054 3.36594 0.916504 5.49699 0.916504C7.63404 0.916504 9.39582 2.62054 9.39582 4.72881C9.39582 5.7912 9.00945 6.7775 8.37351 7.61348C7.67194 8.53562 6.80723 9.33905 5.83391 9.9697C5.61114 10.1154 5.4101 10.1264 5.16561 9.9697C4.18674 9.33905 3.32203 8.53562 2.62647 7.61348C1.99007 6.7775 1.60416 5.7912 1.60416 4.72881ZM4.214 4.84753C4.214 5.5538 4.79033 6.10929 5.49698 6.10929C6.20409 6.10929 6.78596 5.5538 6.78596 4.84753C6.78596 4.14676 6.20409 3.56424 5.49698 3.56424C4.79033 3.56424 4.214 4.14676 4.214 4.84753Z" fill="black" fill-opacity="0.5"/>
</svg>
