<svg width="50" height="47" viewBox="0 0 50 47" fill="none" xmlns="http://www.w3.org/2000/svg">
<rect width="50" height="47" rx="8" fill="#19C060"/>
<path fill-rule="evenodd" clip-rule="evenodd" d="M31.7071 20.7963C31.7071 22.0523 32.039 22.7925 32.7695 23.6456C33.3231 24.2741 33.5 25.0808 33.5 25.956C33.5 26.8302 33.2128 27.6601 32.6373 28.3339C31.884 29.1417 30.8215 29.6573 29.7372 29.747C28.1659 29.8809 26.5937 29.9937 25.0005 29.9937C23.4063 29.9937 21.835 29.9263 20.2638 29.747C19.1785 29.6573 18.116 29.1417 17.3637 28.3339C16.7882 27.6601 16.5 26.8302 16.5 25.956C16.5 25.0808 16.6779 24.2741 17.2305 23.6456C17.9838 22.7925 18.2939 22.0523 18.2939 20.7963V20.3703C18.2939 18.6883 18.7133 17.5885 19.577 16.5119C20.8611 14.9417 22.9194 14 24.9558 14H25.0452C27.1254 14 29.2502 14.987 30.5125 16.6247C31.3314 17.6792 31.7071 18.7327 31.7071 20.3703V20.7963ZM22.0737 32.0608C22.0737 31.5573 22.5358 31.3266 22.9632 31.2279C23.4631 31.1222 26.5093 31.1222 27.0092 31.2279C27.4366 31.3266 27.8987 31.5573 27.8987 32.0608C27.8738 32.5402 27.5926 32.9653 27.204 33.2352C26.7001 33.628 26.1088 33.8767 25.4906 33.9664C25.1487 34.0107 24.8128 34.0117 24.4828 33.9664C23.8636 33.8767 23.2723 33.628 22.7694 33.2342C22.3798 32.9653 22.0985 32.5402 22.0737 32.0608Z" fill="white"/>
<circle cx="30" cy="18" r="3.5" fill="#F42121" stroke="white"/>
</svg>
