<svg width="24" height="24" viewBox="0 0 24 24" fill="none" xmlns="http://www.w3.org/2000/svg">
<circle cx="12" cy="12" r="12" fill="white" fill-opacity="0.58"/>
<g clip-path="url(#clip0_2541_1043)">
<path d="M13.3245 12.5078L16.829 9.00326C17.057 8.77531 17.057 8.40673 16.829 8.17878C16.601 7.95082 16.2325 7.95082 16.0045 8.17878L12.5 11.6833L8.99553 8.17878C8.76747 7.95082 8.399 7.95082 8.17105 8.17878C7.94298 8.40673 7.94298 8.77531 8.17105 9.00326L11.6755 12.5078L8.17105 16.0123C7.94298 16.2403 7.94298 16.6088 8.17105 16.8368C8.28465 16.9505 8.43402 17.0076 8.58329 17.0076C8.73255 17.0076 8.88182 16.9505 8.99553 16.8368L12.5 13.3323L16.0045 16.8368C16.1182 16.9505 16.2675 17.0076 16.4167 17.0076C16.566 17.0076 16.7153 16.9505 16.829 16.8368C17.057 16.6088 17.057 16.2403 16.829 16.0123L13.3245 12.5078Z" fill="white"/>
</g>
<defs>
<clipPath id="clip0_2541_1043">
<rect width="9" height="9" fill="white" transform="translate(8 8)"/>
</clipPath>
</defs>
</svg>
