<svg width="32" height="32" viewBox="0 0 32 32" fill="none" xmlns="http://www.w3.org/2000/svg">
<path d="M21.6182 0H10.3818C8.16365 0 6.38184 1.78182 6.38184 4V28C6.38184 30.2182 8.20002 32 10.3818 32H21.6182C23.8364 32 25.6182 30.2182 25.6182 28V4C25.6182 1.78182 23.8364 0 21.6182 0ZM16.0182 29.4182C15 29.4182 14.2 28.6182 14.2 27.6C14.2 26.5818 15 25.7818 16.0182 25.7818C17.0364 25.7818 17.8364 26.5818 17.8364 27.6C17.8364 28.6182 17.0364 29.4182 16.0182 29.4182ZM23.8 23.8545H8.20002V5.34545H23.8V23.8545Z" fill="#2ECC71"/>
</svg>
