<svg width="113" height="109" viewBox="0 0 113 109" fill="none" xmlns="http://www.w3.org/2000/svg">
<rect x="0.6" y="0.6" width="111.8" height="107.8" rx="4.4" fill="#2ECC71" fill-opacity="0.1" stroke="#2ECC71" stroke-width="1.2" stroke-dasharray="2.2 2.2"/>
<g clip-path="url(#clip0_2541_1035)">
<path d="M41 49C41 42.6347 41 36.3348 41 30C48.9244 30 56.8134 30 64.7603 30C64.7603 31.4463 64.7603 32.874 64.7603 34.3933C67.2126 33.5459 69.582 32.7278 72 31.8924C72 36.9794 72 41.9933 72 47.1C69.5962 46.2743 67.2304 45.4618 64.7793 44.6197C64.7793 46.1195 64.7793 47.5439 64.7793 48.9989C56.824 49 48.9351 49 41 49ZM51.3045 40.4729C51.3045 41.7719 51.3045 42.999 51.3045 44.2565C52.0248 44.2565 52.6835 44.2565 53.4204 44.2565C53.4204 42.9837 53.4204 41.7425 53.4204 40.45C54.8325 40.45 56.1653 40.45 57.5076 40.45C57.5076 39.789 57.5076 39.1837 57.5076 38.5206C56.131 38.5206 54.7982 38.5206 53.3872 38.5206C53.3872 37.2237 53.3872 35.9836 53.3872 34.7511C52.648 34.7511 51.9893 34.7511 51.2749 34.7511C51.2749 36.0218 51.2749 37.2499 51.2749 38.5478C49.871 38.5478 48.524 38.5478 47.1936 38.5478C47.1936 39.2273 47.1936 39.8338 47.1936 40.4729C48.5643 40.4729 49.8817 40.4729 51.3045 40.4729Z" fill="#2ECC71"/>
</g>
<defs>
<clipPath id="clip0_2541_1035">
<rect width="31" height="19" fill="white" transform="translate(41 30)"/>
</clipPath>
</defs>
</svg>
