<svg width="41" height="39" viewBox="0 0 41 39" fill="none" xmlns="http://www.w3.org/2000/svg">
<rect width="41" height="39" rx="5" fill="#2ECC71" fill-opacity="0.1"/>
<path fill-rule="evenodd" clip-rule="evenodd" d="M25.5278 11.75C26.7571 11.75 27.9396 12.2358 28.8095 13.1076C29.6803 13.9775 30.1671 15.1508 30.1671 16.3792V23.6208C30.1671 26.1783 28.0862 28.25 25.5278 28.25H16.4721C13.9137 28.25 11.8337 26.1783 11.8337 23.6208V16.3792C11.8337 13.8217 13.9045 11.75 16.4721 11.75H25.5278ZM26.9863 17.745L27.0596 17.6717C27.2787 17.4058 27.2787 17.0208 27.0495 16.755C26.9221 16.6184 26.747 16.535 26.5646 16.5167C26.3721 16.5066 26.1888 16.5717 26.0503 16.7L21.9171 20C21.3854 20.4409 20.6237 20.4409 20.0838 20L15.9588 16.7C15.6737 16.4892 15.2795 16.5167 15.0421 16.7642C14.7946 17.0117 14.7671 17.4058 14.977 17.6808L15.0971 17.8L19.2679 21.0542C19.7813 21.4575 20.4037 21.6775 21.0554 21.6775C21.7053 21.6775 22.3388 21.4575 22.8512 21.0542L26.9863 17.745Z" fill="#2ECC71"/>
</svg>
