<svg width="16" height="20" viewBox="0 0 16 20" fill="none" xmlns="http://www.w3.org/2000/svg">
<path fill-rule="evenodd" clip-rule="evenodd" d="M13.0625 5.77983V7.1854C14.6413 7.67821 15.7916 9.10745 15.7916 10.8145V15.34C15.7916 17.4534 14.0396 19.1668 11.8795 19.1668H4.12138C1.96039 19.1668 0.208313 17.4534 0.208313 15.34V10.8145C0.208313 9.10745 1.3596 7.67821 2.93749 7.1854V5.77983C2.94681 3.04705 5.21026 0.833496 7.98601 0.833496C10.799 0.833496 13.0625 3.04705 13.0625 5.77983ZM8.00461 2.42762C9.89548 2.42762 11.4324 3.93066 11.4324 5.77984V6.98773H4.56752V5.76162C4.57684 3.92155 6.11375 2.42762 8.00461 2.42762ZM8.81498 14.0839C8.81498 14.5302 8.45171 14.8855 7.9953 14.8855C7.5482 14.8855 7.18493 14.5302 7.18493 14.0839V12.0616C7.18493 11.6243 7.5482 11.2691 7.9953 11.2691C8.45171 11.2691 8.81498 11.6243 8.81498 12.0616V14.0839Z" fill="#2ECC71"/>
</svg>
