<svg width="21" height="27" viewBox="0 0 21 27" fill="none" xmlns="http://www.w3.org/2000/svg">
<path d="M19.9367 13.7461L19.9362 13.7456L14.983 9.20547C14.4434 8.71088 13.8055 8.36188 13.1236 8.14013C14.2552 7.32201 15 5.99991 15 4.50004C15 2.01872 12.9813 0 10.5 0C8.01874 0 6.00002 2.01872 6.00002 4.49998C6.00002 5.99991 6.74489 7.32196 7.87641 8.14008C7.1945 8.36177 6.55663 8.71082 6.01705 9.20542L1.06329 13.7461C0.626016 14.1476 0.375 14.7184 0.375 15.3122C0.375 16.4839 1.3286 17.4375 2.54043 17.4375C3.09963 17.4375 3.64733 17.2107 4.04283 16.8151L6.0594 14.7986C6.1231 15.4852 6.2379 16.1504 6.4027 16.7893L4.3768 19.6018C3.58963 20.651 3.55008 22.0885 4.2774 23.18L6.2225 26.0975C6.59876 26.6627 7.22883 27 7.91275 27C9.02897 27 9.93754 26.0914 9.93754 24.9752V24.7006C9.93754 24.243 9.77986 23.7936 9.49425 23.4355L7.92651 21.4766L8.81092 20.8136C9.881 21.5596 11.1192 21.5596 12.1892 20.8136L13.0731 21.4766L11.5059 23.436C11.2202 23.7936 11.0626 24.2429 11.0626 24.7005V24.9752C11.0626 26.0914 11.9711 26.9999 13.0923 26.9999C13.7713 26.9999 14.4013 26.6627 14.7771 26.098L16.7448 23.1465C17.4589 22.0759 17.4199 20.6641 16.6541 19.6424L14.5975 16.7887C14.7623 16.1504 14.8771 15.4851 14.9408 14.7985L16.9573 16.815C17.3528 17.2105 17.9005 17.4374 18.4998 17.4374C19.6715 17.4374 20.6251 16.4838 20.6251 15.3121C20.625 14.7184 20.374 14.1476 19.9367 13.7461ZM10.5 20.25C9.32666 20.25 8.20168 18.9201 7.59249 16.875H13.4076C12.7983 18.9201 11.6733 20.25 10.5 20.25Z" fill="#2ECC71"/>
</svg>
