<svg width="27" height="27" viewBox="0 0 27 27" fill="none" xmlns="http://www.w3.org/2000/svg">
<g clip-path="url(#clip0_50_2114)">
<path d="M24.5855 7.72042C21.0193 1.86134 15.6471 5.93757 15.6471 5.93757C15.2987 6.2009 14.6562 6.41739 14.2197 6.4184L12.7808 6.41941C12.3442 6.41991 11.7018 6.20341 11.3539 5.94009C11.3539 5.94009 5.98116 1.86285 2.41446 7.72193C-1.15124 13.579 0.285711 19.9577 0.285711 19.9577C0.537455 21.5195 1.3672 22.5617 2.93305 22.4308C4.49436 22.3004 7.88333 18.2247 7.88333 18.2247C8.16327 17.8888 8.74983 17.6144 9.18535 17.6144L17.8121 17.6129C18.2481 17.6129 18.8342 17.8873 19.1136 18.2232C19.1136 18.2232 22.5031 22.2989 24.0669 22.4293C25.6308 22.5602 26.4625 21.517 26.7127 19.9562C26.7122 19.9562 28.1517 13.5785 24.5855 7.72042ZM10.2578 12.4894H8.40797V14.2723C8.40797 14.2723 8.01625 14.5714 7.41006 14.5638C6.80486 14.5548 6.53097 14.2376 6.53097 14.2376V12.49H4.78387C4.78387 12.49 4.56586 12.2664 4.50745 11.6778C4.45005 11.0893 4.74862 10.6135 4.74862 10.6135H6.59894V8.76364C6.59894 8.76364 6.97957 8.55973 7.52686 8.57534C8.07466 8.59246 8.47594 8.79839 8.47594 8.79839L8.46838 10.613H10.2155C10.2155 10.613 10.5206 11.0047 10.5458 11.4779C10.5709 11.9517 10.2578 12.4894 10.2578 12.4894ZM18.7425 14.5215C17.9324 14.5215 17.2794 13.8665 17.2794 13.0574C17.2794 12.2468 17.9324 11.5932 18.7425 11.5932C19.5491 11.5932 20.2072 12.2468 20.2072 13.0574C20.2072 13.867 19.5491 14.5215 18.7425 14.5215ZM18.7425 10.4931C17.9324 10.4931 17.2794 9.83859 17.2794 9.02949C17.2794 8.21887 17.9324 7.56535 18.7425 7.56535C19.5491 7.56535 20.2072 8.21887 20.2072 9.02949C20.2072 9.83909 19.5491 10.4931 18.7425 10.4931ZM22.3888 12.6556C21.5787 12.6556 20.9257 12.0011 20.9257 11.1915C20.9257 10.3813 21.5787 9.72732 22.3888 9.72732C23.1954 9.72732 23.8534 10.3813 23.8534 11.1915C23.8534 12.0011 23.1954 12.6556 22.3888 12.6556Z" fill="#2ECC71"/>
</g>
<defs>
<clipPath id="clip0_50_2114">
<rect width="27" height="27" fill="white"/>
</clipPath>
</defs>
</svg>
