<svg width="23" height="26" viewBox="0 0 23 26" fill="none" xmlns="http://www.w3.org/2000/svg">
<g clip-path="url(#clip0_50_2074)">
<path d="M0.00347987 26C0.00347987 25.2178 0.00986547 24.4738 -0.000169038 23.7306C-0.00381795 23.469 0.125718 23.4224 0.340092 23.4252C0.93304 23.4317 1.5269 23.4094 2.11802 23.4336C2.45464 23.4475 2.56319 23.3395 2.56228 22.9884C2.55133 18.3174 2.55407 13.6463 2.55407 8.97526C2.55407 6.1201 2.55498 3.26401 2.55681 0.408856C2.55681 0.285934 2.56684 0.163011 2.57323 0.000976562C8.51639 0.000976562 14.4477 0.000976562 20.4392 0.000976562C20.4392 0.203985 20.4392 0.400475 20.4392 0.596965C20.4392 8.03006 20.4438 15.4641 20.4301 22.8972C20.4292 23.3367 20.5587 23.4596 20.9701 23.4354C21.5156 23.4028 22.0648 23.4364 22.6112 23.4243C22.8666 23.4187 23.0062 23.4755 22.9989 23.78C22.9834 24.5073 22.9944 25.2364 22.9944 26.001C15.3307 26 7.69539 26 0.00347987 26ZM11.4903 23.4261C12.2027 23.4261 12.9161 23.4149 13.6285 23.4317C13.9323 23.4392 14.0664 23.3591 14.0564 23.0192C14.0345 22.2919 14.0609 21.5637 14.0463 20.8364C14.0171 19.3864 12.9188 18.241 11.5523 18.2187C10.1575 18.1954 9.00717 19.3129 8.95244 20.7768C8.92416 21.5348 8.95426 22.2937 8.94058 23.0527C8.9351 23.3311 9.02633 23.4373 9.30638 23.4317C10.0343 23.4168 10.7623 23.4261 11.4903 23.4261ZM7.65981 5.14603C7.65981 4.34238 7.66802 3.60112 7.65069 2.85893C7.64886 2.76301 7.51841 2.5898 7.44452 2.58794C6.67825 2.56745 5.91198 2.57583 5.14297 2.57583C5.14297 3.47447 5.14297 4.30234 5.14297 5.14603C5.98222 5.14603 6.79319 5.14603 7.65981 5.14603ZM12.7528 2.57583C11.9509 2.57583 11.1983 2.57118 10.4448 2.58328C10.371 2.58421 10.2369 2.6941 10.2359 2.75556C10.2213 3.55083 10.2268 4.34611 10.2268 5.13858C11.1153 5.13858 11.9245 5.13858 12.7528 5.13858C12.7528 4.2893 12.7528 3.47447 12.7528 2.57583ZM17.8521 5.15535C17.8521 4.27533 17.8521 3.4484 17.8521 2.57304C17.0831 2.57304 16.3442 2.56652 15.6044 2.58142C15.5141 2.58328 15.3499 2.6941 15.349 2.75742C15.3316 3.55363 15.3371 4.35076 15.3371 5.15628C16.2183 5.15535 17.0174 5.15535 17.8521 5.15535ZM5.14662 7.80656C5.14662 8.68658 5.14662 9.51351 5.14662 10.387C5.91837 10.387 6.65727 10.3935 7.39526 10.3786C7.48375 10.3768 7.64521 10.2632 7.64613 10.1989C7.66346 9.40456 7.65707 8.60929 7.65707 7.80656C6.77039 7.80656 5.97219 7.80656 5.14662 7.80656ZM10.2487 10.3879C11.0323 10.3879 11.7584 10.3954 12.4837 10.3786C12.5804 10.3768 12.7546 10.2501 12.7564 10.1784C12.7765 9.39618 12.7692 8.61301 12.7692 7.81494C11.8962 7.81494 11.0861 7.81494 10.2487 7.81494C10.2487 8.66982 10.2487 9.49582 10.2487 10.3879ZM17.8658 7.81494C17.0111 7.81494 16.2001 7.81494 15.3335 7.81494C15.3335 8.61208 15.3271 9.38128 15.3426 10.1505C15.3444 10.2296 15.4776 10.373 15.5515 10.3749C16.3178 10.3917 17.0849 10.3851 17.8649 10.3851C17.8658 9.49582 17.8658 8.6782 17.8658 7.81494ZM7.66437 13.0438C6.80779 13.0438 5.97401 13.0438 5.14388 13.0438C5.14388 13.8987 5.14388 14.7293 5.14388 15.6038C5.91563 15.6038 6.65727 15.6149 7.39709 15.5889C7.48922 15.5851 7.64886 15.3849 7.65251 15.2723C7.67532 14.545 7.66437 13.8158 7.66437 13.0438ZM10.2405 15.601C11.0387 15.601 11.794 15.6056 12.5494 15.5935C12.6232 15.5926 12.7573 15.4818 12.7583 15.4194C12.7728 14.6213 12.7674 13.8223 12.7674 13.0317C11.8834 13.0317 11.0706 13.0317 10.2396 13.0317C10.2405 13.8819 10.2405 14.6995 10.2405 15.601ZM15.3335 13.0168C15.3335 13.827 15.3289 14.598 15.3408 15.3682C15.3417 15.4455 15.4484 15.587 15.5077 15.5879C16.2895 15.6028 17.0722 15.5982 17.8503 15.5982C17.8503 14.6912 17.8503 13.8614 17.8503 13.0168C17.0193 13.0168 16.2174 13.0168 15.3335 13.0168Z" fill="#2ECC71"/>
</g>
<defs>
<clipPath id="clip0_50_2074">
<rect width="23" height="26" fill="white"/>
</clipPath>
</defs>
</svg>
