
<svg width="18" height="18" viewBox="0 0 18 18" fill="none" xmlns="http://www.w3.org/2000/svg">
<path fill-rule="evenodd" clip-rule="evenodd" d="M6.59503 16.3589L14.6492 5.94332C15.0869 5.38165 15.2426 4.73227 15.0967 4.07107C14.9702 3.46999 14.6006 2.89846 14.0461 2.46489L12.694 1.39081C11.517 0.454686 10.0579 0.553225 9.2214 1.6273L8.31676 2.8009C8.20003 2.94773 8.22921 3.16451 8.37512 3.28276C8.37512 3.28276 10.661 5.11559 10.7097 5.155C10.8653 5.30281 10.982 5.49989 11.0112 5.73639C11.0599 6.19952 10.7389 6.63309 10.2622 6.69222C10.0385 6.72178 9.82449 6.6528 9.66885 6.5247L7.26621 4.61304C7.14949 4.52534 6.9744 4.54406 6.87712 4.66231L1.16721 12.0527C0.797574 12.5159 0.671119 13.117 0.797574 13.6984L1.52712 16.8615C1.56603 17.029 1.71194 17.1472 1.88703 17.1472L5.09703 17.1078C5.68067 17.098 6.22539 16.8319 6.59503 16.3589ZM11.0897 15.3738H16.3239C16.8346 15.3738 17.25 15.7946 17.25 16.3119C17.25 16.8302 16.8346 17.25 16.3239 17.25H11.0897C10.579 17.25 10.1636 16.8302 10.1636 16.3119C10.1636 15.7946 10.579 15.3738 11.0897 15.3738Z" fill="white"/>
</svg>
